<svg id="visual" viewBox="0 0 960 300" width="960" height="300" xmlns="http://www.w3.org/2000/svg" xmlns:xlink="http://www.w3.org/1999/xlink" version="1.1"><rect x="0" y="0" width="960" height="300" fill="#202731"></rect><path d="M0 121L22.8 124.5C45.7 128 91.3 135 137 128.7C182.7 122.3 228.3 102.7 274 89.3C319.7 76 365.3 69 411.2 75.3C457 81.7 503 101.3 548.8 116C594.7 130.7 640.3 140.3 686 131.7C731.7 123 777.3 96 823 91.3C868.7 86.7 914.3 104.3 937.2 113.2L960 122L960 301L937.2 301C914.3 301 868.7 301 823 301C777.3 301 731.7 301 686 301C640.3 301 594.7 301 548.8 301C503 301 457 301 411.2 301C365.3 301 319.7 301 274 301C228.3 301 182.7 301 137 301C91.3 301 45.7 301 22.8 301L0 301Z" fill="#952179"></path><path d="M0 179L22.8 171.8C45.7 164.7 91.3 150.3 137 152.2C182.7 154 228.3 172 274 180.8C319.7 189.7 365.3 189.3 411.2 189.5C457 189.7 503 190.3 548.8 190C594.7 189.7 640.3 188.3 686 187C731.7 185.7 777.3 184.3 823 173.7C868.7 163 914.3 143 937.2 133L960 123L960 301L937.2 301C914.3 301 868.7 301 823 301C777.3 301 731.7 301 686 301C640.3 301 594.7 301 548.8 301C503 301 457 301 411.2 301C365.3 301 319.7 301 274 301C228.3 301 182.7 301 137 301C91.3 301 45.7 301 22.8 301L0 301Z" fill="#bb1579"></path><path d="M0 204L22.8 198.5C45.7 193 91.3 182 137 181.2C182.7 180.3 228.3 189.7 274 194C319.7 198.3 365.3 197.7 411.2 196.7C457 195.7 503 194.3 548.8 199.8C594.7 205.3 640.3 217.7 686 214.7C731.7 211.7 777.3 193.3 823 185C868.7 176.7 914.3 178.3 937.2 179.2L960 180L960 301L937.2 301C914.3 301 868.7 301 823 301C777.3 301 731.7 301 686 301C640.3 301 594.7 301 548.8 301C503 301 457 301 411.2 301C365.3 301 319.7 301 274 301C228.3 301 182.7 301 137 301C91.3 301 45.7 301 22.8 301L0 301Z" fill="#df0073"></path><path d="M0 264L22.8 263.8C45.7 263.7 91.3 263.3 137 256C182.7 248.7 228.3 234.3 274 231.7C319.7 229 365.3 238 411.2 240.3C457 242.7 503 238.3 548.8 238.2C594.7 238 640.3 242 686 245.2C731.7 248.3 777.3 250.7 823 251.7C868.7 252.7 914.3 252.3 937.2 252.2L960 252L960 301L937.2 301C914.3 301 868.7 301 823 301C777.3 301 731.7 301 686 301C640.3 301 594.7 301 548.8 301C503 301 457 301 411.2 301C365.3 301 319.7 301 274 301C228.3 301 182.7 301 137 301C91.3 301 45.7 301 22.8 301L0 301Z" fill="#ff0066"></path></svg>