<svg id="visual" viewBox="0 0 960 300" width="960" height="300" xmlns="http://www.w3.org/2000/svg" xmlns:xlink="http://www.w3.org/1999/xlink" version="1.1"><rect x="0" y="0" width="960" height="300" fill="#202731"></rect><path d="M0 92L22.8 97.2C45.7 102.3 91.3 112.7 137 109.8C182.7 107 228.3 91 274 83.8C319.7 76.7 365.3 78.3 411.2 84.8C457 91.3 503 102.7 548.8 104.5C594.7 106.3 640.3 98.7 686 92.5C731.7 86.3 777.3 81.7 823 83.3C868.7 85 914.3 93 937.2 97L960 101L960 0L937.2 0C914.3 0 868.7 0 823 0C777.3 0 731.7 0 686 0C640.3 0 594.7 0 548.8 0C503 0 457 0 411.2 0C365.3 0 319.7 0 274 0C228.3 0 182.7 0 137 0C91.3 0 45.7 0 22.8 0L0 0Z" fill="#fa7268"></path><path d="M0 65L22.8 64.2C45.7 63.3 91.3 61.7 137 60.8C182.7 60 228.3 60 274 62.7C319.7 65.3 365.3 70.7 411.2 74.3C457 78 503 80 548.8 79C594.7 78 640.3 74 686 72.2C731.7 70.3 777.3 70.7 823 74.5C868.7 78.3 914.3 85.7 937.2 89.3L960 93L960 0L937.2 0C914.3 0 868.7 0 823 0C777.3 0 731.7 0 686 0C640.3 0 594.7 0 548.8 0C503 0 457 0 411.2 0C365.3 0 319.7 0 274 0C228.3 0 182.7 0 137 0C91.3 0 45.7 0 22.8 0L0 0Z" fill="#ef5f67"></path><path d="M0 73L22.8 69.2C45.7 65.3 91.3 57.7 137 58.3C182.7 59 228.3 68 274 67.8C319.7 67.7 365.3 58.3 411.2 58.3C457 58.3 503 67.7 548.8 68.2C594.7 68.7 640.3 60.3 686 58.8C731.7 57.3 777.3 62.7 823 64.7C868.7 66.7 914.3 65.3 937.2 64.7L960 64L960 0L937.2 0C914.3 0 868.7 0 823 0C777.3 0 731.7 0 686 0C640.3 0 594.7 0 548.8 0C503 0 457 0 411.2 0C365.3 0 319.7 0 274 0C228.3 0 182.7 0 137 0C91.3 0 45.7 0 22.8 0L0 0Z" fill="#e34c67"></path><path d="M0 37L22.8 37.8C45.7 38.7 91.3 40.3 137 39.5C182.7 38.7 228.3 35.3 274 37.3C319.7 39.3 365.3 46.7 411.2 49C457 51.3 503 48.7 548.8 44.7C594.7 40.7 640.3 35.3 686 32.7C731.7 30 777.3 30 823 30.7C868.7 31.3 914.3 32.7 937.2 33.3L960 34L960 0L937.2 0C914.3 0 868.7 0 823 0C777.3 0 731.7 0 686 0C640.3 0 594.7 0 548.8 0C503 0 457 0 411.2 0C365.3 0 319.7 0 274 0C228.3 0 182.7 0 137 0C91.3 0 45.7 0 22.8 0L0 0Z" fill="#d53867"></path><path d="M0 13L22.8 16.5C45.7 20 91.3 27 137 30.8C182.7 34.7 228.3 35.3 274 32.2C319.7 29 365.3 22 411.2 19.8C457 17.7 503 20.3 548.8 21C594.7 21.7 640.3 20.3 686 22.3C731.7 24.3 777.3 29.7 823 31.3C868.7 33 914.3 31 937.2 30L960 29L960 0L937.2 0C914.3 0 868.7 0 823 0C777.3 0 731.7 0 686 0C640.3 0 594.7 0 548.8 0C503 0 457 0 411.2 0C365.3 0 319.7 0 274 0C228.3 0 182.7 0 137 0C91.3 0 45.7 0 22.8 0L0 0Z" fill="#c62368"></path></svg>