<svg id="visual" viewBox="0 0 960 300" width="960" height="300" xmlns="http://www.w3.org/2000/svg" xmlns:xlink="http://www.w3.org/1999/xlink" version="1.1"><rect x="0" y="0" width="960" height="300" fill="#202731"></rect><path d="M0 179L22.8 184C45.7 189 91.3 199 137 197.8C182.7 196.7 228.3 184.3 274 179C319.7 173.7 365.3 175.3 411.2 183.2C457 191 503 205 548.8 208.2C594.7 211.3 640.3 203.7 686 193.8C731.7 184 777.3 172 823 169.3C868.7 166.7 914.3 173.3 937.2 176.7L960 180L960 0L937.2 0C914.3 0 868.7 0 823 0C777.3 0 731.7 0 686 0C640.3 0 594.7 0 548.8 0C503 0 457 0 411.2 0C365.3 0 319.7 0 274 0C228.3 0 182.7 0 137 0C91.3 0 45.7 0 22.8 0L0 0Z" fill="#ff6f61"></path><path d="M0 108L22.8 116.2C45.7 124.3 91.3 140.7 137 143.2C182.7 145.7 228.3 134.3 274 136.3C319.7 138.3 365.3 153.7 411.2 159C457 164.3 503 159.7 548.8 154.5C594.7 149.3 640.3 143.7 686 147.3C731.7 151 777.3 164 823 161.5C868.7 159 914.3 141 937.2 132L960 123L960 0L937.2 0C914.3 0 868.7 0 823 0C777.3 0 731.7 0 686 0C640.3 0 594.7 0 548.8 0C503 0 457 0 411.2 0C365.3 0 319.7 0 274 0C228.3 0 182.7 0 137 0C91.3 0 45.7 0 22.8 0L0 0Z" fill="#f46051"></path><path d="M0 121L22.8 115C45.7 109 91.3 97 137 96.8C182.7 96.7 228.3 108.3 274 106.3C319.7 104.3 365.3 88.7 411.2 83.5C457 78.3 503 83.7 548.8 83.8C594.7 84 640.3 79 686 76.8C731.7 74.7 777.3 75.3 823 81.7C868.7 88 914.3 100 937.2 106L960 112L960 0L937.2 0C914.3 0 868.7 0 823 0C777.3 0 731.7 0 686 0C640.3 0 594.7 0 548.8 0C503 0 457 0 411.2 0C365.3 0 319.7 0 274 0C228.3 0 182.7 0 137 0C91.3 0 45.7 0 22.8 0L0 0Z" fill="#e85041"></path><path d="M0 79L22.8 74C45.7 69 91.3 59 137 59.8C182.7 60.7 228.3 72.3 274 71.8C319.7 71.3 365.3 58.7 411.2 55.7C457 52.7 503 59.3 548.8 61.5C594.7 63.7 640.3 61.3 686 60.8C731.7 60.3 777.3 61.7 823 62.3C868.7 63 914.3 63 937.2 63L960 63L960 0L937.2 0C914.3 0 868.7 0 823 0C777.3 0 731.7 0 686 0C640.3 0 594.7 0 548.8 0C503 0 457 0 411.2 0C365.3 0 319.7 0 274 0C228.3 0 182.7 0 137 0C91.3 0 45.7 0 22.8 0L0 0Z" fill="#dd3f31"></path></svg>