<svg id="visual" viewBox="0 0 960 300" width="960" height="300" xmlns="http://www.w3.org/2000/svg" xmlns:xlink="http://www.w3.org/1999/xlink" version="1.1"><rect x="0" y="0" width="960" height="300" fill="#202731"></rect><path d="M0 185L22.8 195.5C45.7 206 91.3 227 137 221.3C182.7 215.7 228.3 183.3 274 169C319.7 154.7 365.3 158.3 411.2 171.5C457 184.7 503 207.3 548.8 210.7C594.7 214 640.3 198 686 185.7C731.7 173.3 777.3 164.7 823 168.3C868.7 172 914.3 188 937.2 196L960 204L960 0L937.2 0C914.3 0 868.7 0 823 0C777.3 0 731.7 0 686 0C640.3 0 594.7 0 548.8 0C503 0 457 0 411.2 0C365.3 0 319.7 0 274 0C228.3 0 182.7 0 137 0C91.3 0 45.7 0 22.8 0L0 0Z" fill="#fa7268"></path><path d="M0 131L22.8 129.2C45.7 127.3 91.3 123.7 137 122.2C182.7 120.7 228.3 121.3 274 126.7C319.7 132 365.3 142 411.2 149.2C457 156.3 503 160.7 548.8 159C594.7 157.3 640.3 149.7 686 146C731.7 142.3 777.3 142.7 823 150.2C868.7 157.7 914.3 172.3 937.2 179.7L960 187L960 0L937.2 0C914.3 0 868.7 0 823 0C777.3 0 731.7 0 686 0C640.3 0 594.7 0 548.8 0C503 0 457 0 411.2 0C365.3 0 319.7 0 274 0C228.3 0 182.7 0 137 0C91.3 0 45.7 0 22.8 0L0 0Z" fill="#ef5f67"></path><path d="M0 148L22.8 140.2C45.7 132.3 91.3 116.7 137 118C182.7 119.3 228.3 137.7 274 137.3C319.7 137 365.3 118 411.2 118C457 118 503 137 548.8 138.2C594.7 139.3 640.3 122.7 686 119.7C731.7 116.7 777.3 127.3 823 131.2C868.7 135 914.3 132 937.2 130.5L960 129L960 0L937.2 0C914.3 0 868.7 0 823 0C777.3 0 731.7 0 686 0C640.3 0 594.7 0 548.8 0C503 0 457 0 411.2 0C365.3 0 319.7 0 274 0C228.3 0 182.7 0 137 0C91.3 0 45.7 0 22.8 0L0 0Z" fill="#e34c67"></path><path d="M0 74L22.8 75.8C45.7 77.7 91.3 81.3 137 79.8C182.7 78.3 228.3 71.7 274 75.5C319.7 79.3 365.3 93.7 411.2 98.5C457 103.3 503 98.7 548.8 90.8C594.7 83 640.3 72 686 66.5C731.7 61 777.3 61 823 62.3C868.7 63.7 914.3 66.3 937.2 67.7L960 69L960 0L937.2 0C914.3 0 868.7 0 823 0C777.3 0 731.7 0 686 0C640.3 0 594.7 0 548.8 0C503 0 457 0 411.2 0C365.3 0 319.7 0 274 0C228.3 0 182.7 0 137 0C91.3 0 45.7 0 22.8 0L0 0Z" fill="#d53867"></path><path d="M0 27L22.8 34C45.7 41 91.3 55 137 62.5C182.7 70 228.3 71 274 64.5C319.7 58 365.3 44 411.2 40C457 36 503 42 548.8 43.5C594.7 45 640.3 42 686 46C731.7 50 777.3 61 823 64.3C868.7 67.7 914.3 63.3 937.2 61.2L960 59L960 0L937.2 0C914.3 0 868.7 0 823 0C777.3 0 731.7 0 686 0C640.3 0 594.7 0 548.8 0C503 0 457 0 411.2 0C365.3 0 319.7 0 274 0C228.3 0 182.7 0 137 0C91.3 0 45.7 0 22.8 0L0 0Z" fill="#c62368"></path></svg>